 http://bayimg.com/LaPKPaadb


NFS Most Wanted 2012 Trailer [HD]

General
Format                                   : MPEG-4
Format profile                           : Base Media / Version 2
Codec ID                                 : mp42
File size                                : 57.5 MiB
Duration                                 : 1mn 37s
Overall bit rate mode                    : Variable
Overall bit rate                         : 4 958 Kbps


Video
ID                                       : 1
Format                                   : AVC
Format/Info                              : Advanced Video Codec
Format profile                           : High@L4.0
Format settings, CABAC                   : Yes
Format settings, ReFrames                : 1 frame
Format settings, GOP                     : M=1, N=30
Codec ID                                 : avc1
Codec ID/Info                            : Advanced Video Coding
Duration                                 : 1mn 37s
Bit rate                                 : 4 806 Kbps
Maximum bit rate                         : 10.6 Mbps
Width                                    : 1 920 pixels
Height                                   : 1 080 pixels
Display aspect ratio                     : 16:9
Frame rate mode                          : Constant
Frame rate                               : 29.970 fps
Color space                              : YUV
Chroma subsampling                       : 4:2:0
Bit depth                                : 8 bits
Scan type                                : Progressive
Bits/(Pixel*Frame)                       : 0.077
Stream size                              : 55.8 MiB (97%)

Audio
ID                                       : 2
Format                                   : AAC
Format/Info                              : Advanced Audio Codec
Format profile                           : LC
Codec ID                                 : 40
Duration                                 : 1mn 37s
Bit rate mode                            : Variable
Bit rate                                 : 150 Kbps
Maximum bit rate                         : 187 Kbps
Channel(s)                               : 2 channels
Channel positions                        : Front: L R
Sampling rate                            : 44.1 KHz
Compression mode                         : Lossy
Stream size                              : 1.74 MiB (3%)
